<svg width="106" height="24" viewBox="0 0 106 24" fill="none" xmlns="http://www.w3.org/2000/svg">
<g clip-path="url(#clip0_464_1532)">
<path d="M28.9195 4.6943C32.5205 4.6943 36.0399 6.8149 36.0399 11.5389C36.0399 11.9139 36.0192 12.4952 35.978 12.9039C35.9686 12.9977 35.8888 13.0689 35.794 13.0689H25.6939C25.9895 14.7601 27.172 15.8608 29.0256 15.8608C30.255 15.8608 31.0396 15.182 31.4666 14.3701C31.5201 14.268 31.6365 14.2145 31.7491 14.2389L35.5256 15.0611C35.641 15.0864 35.702 15.2101 35.6551 15.318C34.772 17.3157 32.7636 19.2957 28.9993 19.2957C24.0553 19.2957 21.4219 16.0745 21.4219 11.9945C21.4219 7.91458 24.1623 4.69336 28.9186 4.69336L28.9195 4.6943ZM31.8214 10.4917C31.6337 8.88113 30.5581 8.02239 29.0002 8.02239C26.9581 8.02239 26.0984 9.06957 25.7756 10.4917H31.8214Z" fill="#191919"/>
<path d="M37.3301 18.6816V5.30833C37.3301 5.20615 37.4127 5.12365 37.515 5.12365H41.4444C41.5467 5.12365 41.6293 5.20615 41.6293 5.30833V6.8955C42.5697 5.41896 43.9671 4.69427 45.7672 4.69427C48.4006 4.69427 50.6577 6.49238 50.6577 10.5189V18.6816C50.6577 18.7838 50.5751 18.8663 50.4728 18.8663H46.5433C46.441 18.8663 46.3584 18.7838 46.3584 18.6816V11.1358C46.3584 9.33767 45.418 8.34393 44.0478 8.34393C42.5697 8.34393 41.6293 9.31048 41.6293 11.5117V18.6816C41.6293 18.7838 41.5467 18.8663 41.4444 18.8663H37.515C37.4127 18.8663 37.3301 18.7838 37.3301 18.6816Z" fill="#191919"/>
<path d="M50.9219 5.12369H55.0898C55.1714 5.12369 55.2427 5.17712 55.2671 5.25494L58.398 15.6189L61.5288 5.25494C61.5522 5.17712 61.6245 5.12369 61.7062 5.12369H65.874C66.0017 5.12369 66.0918 5.25025 66.0476 5.37119L61.2538 18.6958C61.2172 18.7979 61.1196 18.8673 61.0098 18.8673H55.7852C55.6763 18.8673 55.5787 18.7989 55.5412 18.6958L50.7473 5.37119C50.7042 5.25119 50.7933 5.12369 50.921 5.12369H50.9219Z" fill="#191919"/>
<path d="M75.1651 18.6817V16.5845C74.4932 17.9804 72.9888 19.2957 70.651 19.2957C67.9368 19.2957 65.9219 17.5782 65.9219 15.1623C65.9219 12.6123 67.6149 10.7064 71.3229 10.7064H73.473C74.6555 10.7064 74.9774 9.84767 74.8704 9.28423C74.709 8.31768 73.8494 7.80768 72.6406 7.80768C71.1136 7.80768 70.1892 8.65049 70.0728 9.8111C70.0625 9.91704 69.9649 9.99298 69.8598 9.97517L66.2147 9.36861C66.1133 9.35173 66.0439 9.25517 66.0626 9.15486C66.6567 5.98708 69.6637 4.69427 72.7494 4.69427C75.8352 4.69427 79.2523 5.44614 79.2523 11.1367V18.6826C79.2523 18.7848 79.1697 18.8673 79.0674 18.8673H75.3528C75.2505 18.8673 75.1679 18.7848 75.1679 18.6826L75.1651 18.6817ZM71.9142 16.1823C73.6335 16.1823 74.816 14.8942 74.9502 13.2836H72.344C70.7589 13.2836 70.1939 13.9276 70.2211 14.8136C70.2483 15.7529 71.0001 16.1823 71.9142 16.1823Z" fill="#191919"/>
<path d="M79.8945 8.37489V5.30836C79.8945 5.20617 79.9771 5.12367 80.0794 5.12367H81.6139C82.3262 5.12367 82.9033 4.54711 82.9033 3.83556V1.44308C82.9033 1.34089 82.9859 1.25839 83.0882 1.25839H86.5879C86.6902 1.25839 86.7728 1.34089 86.7728 1.44308V5.12367H89.5976C89.6999 5.12367 89.7825 5.20617 89.7825 5.30836V8.37489C89.7825 8.47708 89.6999 8.55958 89.5976 8.55958H86.7728V13.5255C86.7728 15.1436 88.1495 15.8026 89.5873 15.2926C89.683 15.2589 89.7825 15.3311 89.7825 15.4314V18.6667C89.7825 18.7857 89.7018 18.8907 89.5864 18.9179C89.2147 19.006 88.6995 19.082 88.0904 19.082C84.7588 19.082 82.4745 17.9542 82.4745 13.1233V8.56051H80.0794C79.9771 8.56051 79.8945 8.47802 79.8945 8.37583V8.37489Z" fill="#191919"/>
<path d="M105.476 11.9955C105.476 16.022 102.627 19.2966 97.9517 19.2966C93.2761 19.2966 90.4277 16.022 90.4277 11.9955C90.4277 7.96893 93.2761 4.69427 97.9517 4.69427C102.627 4.69427 105.476 7.96893 105.476 11.9955ZM101.176 11.9955C101.176 10.0089 100.075 8.34487 97.9517 8.34487C95.8288 8.34487 94.727 10.0089 94.727 11.9955C94.727 13.982 95.8288 15.6461 97.9517 15.6461C100.075 15.6461 101.176 13.982 101.176 11.9955Z" fill="#191919"/>
<path d="M9.99352 23.9992C10.587 23.9992 11.0681 23.5186 11.0681 22.9257C11.0681 22.3329 10.587 21.8523 9.99352 21.8523C9.40005 21.8523 8.91895 22.3329 8.91895 22.9257C8.91895 23.5186 9.40005 23.9992 9.99352 23.9992Z" fill="#87E64B"/>
<path d="M16.1662 15.6161L10.1119 16.2639C10.0012 16.2761 9.94396 16.1345 10.0322 16.0661L15.9569 11.4583C16.3417 11.1443 16.5866 10.6549 16.4815 10.1308C16.3764 9.3274 15.712 8.80334 14.8729 8.90834L8.43579 9.84959C8.32223 9.86646 8.26123 9.72115 8.35227 9.65177L14.7331 4.78526C15.9926 3.80745 16.0967 1.88559 14.9433 0.768104C13.8941 -0.280012 12.2151 -0.245325 11.1659 0.802791L0.882776 11.2493C0.497993 11.6683 0.323432 12.2271 0.428544 12.8214C0.603104 13.7646 1.54723 14.3936 2.4923 14.2192L8.03505 13.0896C8.15518 13.0652 8.22088 13.2255 8.1167 13.2911L1.96674 17.223C1.19717 17.7123 0.848052 18.5851 1.09206 19.4589C1.33701 20.612 2.49136 21.2757 3.61005 20.9964L12.8026 18.7342C12.9058 18.7089 12.9819 18.8289 12.9152 18.9114L11.4793 20.6814C11.0946 21.1707 11.7243 21.8345 12.2489 21.4501L16.9705 17.5726C17.8095 16.8742 17.2501 15.5111 16.1662 15.6161Z" fill="#87E64B"/>
</g>
<defs>
<clipPath id="clip0_464_1532">
<rect width="105.113" height="24" fill="white" transform="translate(0.398438)"/>
</clipPath>
</defs>
</svg>
