<svg width="32" height="32" viewBox="0 0 32 32" fill="none" xmlns="http://www.w3.org/2000/svg">
<g clip-path="url(#clip0_461_40608)">
<g clip-path="url(#clip1_461_40608)">
<path d="M29.3327 15.3334V16.6667C29.3327 17.0349 29.0342 17.3334 28.666 17.3334H7.10602L13.0393 23.2534C13.1656 23.3785 13.2365 23.5489 13.2365 23.7267C13.2365 23.9045 13.1656 24.0748 13.0393 24.2L12.0927 25.1334C11.9675 25.2596 11.7971 25.3306 11.6193 25.3306C11.4416 25.3306 11.2712 25.2596 11.146 25.1334L2.95935 16.96C2.77176 16.7727 2.66625 16.5185 2.66602 16.2534V15.7467C2.66909 15.4821 2.77417 15.229 2.95935 15.04L11.146 6.86669C11.2712 6.74049 11.4416 6.66949 11.6193 6.66949C11.7971 6.66949 11.9675 6.74049 12.0927 6.86669L13.0393 7.81336C13.1648 7.93625 13.2354 8.10444 13.2354 8.28003C13.2354 8.45561 13.1648 8.62381 13.0393 8.74669L7.10602 14.6667H28.666C29.0342 14.6667 29.3327 14.9652 29.3327 15.3334Z" fill="#191919"/>
</g>
</g>
<defs>
<clipPath id="clip0_461_40608">
<rect width="32" height="32" fill="white"/>
</clipPath>
<clipPath id="clip1_461_40608">
<rect width="32" height="32" fill="white"/>
</clipPath>
</defs>
</svg>
