<svg width="24" height="24" viewBox="0 0 24 24" fill="none" xmlns="http://www.w3.org/2000/svg">
<g clip-path="url(#clip0_13502_32228)">
<path d="M11.2818 8.22C11.4223 8.07931 11.613 8.00018 11.8118 8H12.1918C12.3902 8.0023 12.5801 8.08112 12.7218 8.22L17.8518 13.36C17.9465 13.4539 17.9997 13.5817 17.9997 13.715C17.9997 13.8483 17.9465 13.9761 17.8518 14.07L17.1418 14.78C17.0496 14.8741 16.9235 14.9271 16.7918 14.9271C16.6601 14.9271 16.534 14.8741 16.4418 14.78L12.0018 10.33L7.56181 14.78C7.46792 14.8747 7.34012 14.9279 7.20681 14.9279C7.07349 14.9279 6.94569 14.8747 6.85181 14.78L6.15181 14.07C6.05715 13.9761 6.00391 13.8483 6.00391 13.715C6.00391 13.5817 6.05715 13.4539 6.15181 13.36L11.2818 8.22Z" fill="#191919"/>
</g>
<defs>
<clipPath id="clip0_13502_32228">
<rect width="24" height="24" fill="white"/>
</clipPath>
</defs>
</svg>
