<svg width="24" height="24" viewBox="0 0 24 24" fill="none" xmlns="http://www.w3.org/2000/svg">
<g clip-path="url(#clip0_13502_25448)">
<path d="M12.7218 15.7802C12.5813 15.9209 12.3907 16 12.1918 16.0002H11.8118C11.6134 15.9979 11.4235 15.919 11.2818 15.7802L6.15181 10.6402C6.05715 10.5463 6.00391 10.4185 6.00391 10.2852C6.00391 10.1518 6.05715 10.024 6.15181 9.93017L6.86181 9.22017C6.95397 9.1261 7.08012 9.07309 7.21181 9.07309C7.3435 9.07309 7.46964 9.1261 7.56181 9.22017L12.0018 13.6702L16.4418 9.22017C16.5357 9.12551 16.6635 9.07227 16.7968 9.07227C16.9301 9.07227 17.0579 9.12551 17.1518 9.22017L17.8518 9.93017C17.9465 10.024 17.9997 10.1518 17.9997 10.2852C17.9997 10.4185 17.9465 10.5463 17.8518 10.6402L12.7218 15.7802Z" fill="#191919"/>
</g>
<defs>
<clipPath id="clip0_13502_25448">
<rect width="24" height="24" fill="white"/>
</clipPath>
</defs>
</svg>
