<svg width="24" height="24" viewBox="0 0 24 24" fill="none" xmlns="http://www.w3.org/2000/svg">
<g clip-path="url(#clip0_13502_32218)">
<path d="M12 6.25C13.2067 6.25005 14.3834 6.62939 15.3623 7.33496C16.3413 8.04057 17.0734 9.03682 17.4551 10.1816C17.8366 11.3263 17.848 12.5621 17.4883 13.7139C17.1354 14.8435 16.4421 15.8358 15.5049 16.5566C15.3006 16.7638 15.1314 17.0018 15.002 17.2607C14.989 17.2956 14.9719 17.3281 14.9541 17.3604C14.9163 17.4443 14.8828 17.5304 14.8535 17.6182C14.7172 18.0274 14.6791 18.4629 14.7422 18.8896C14.7476 18.926 14.75 18.9632 14.75 19C14.75 19.7291 14.4607 20.4287 13.9453 20.9443C13.4296 21.46 12.7293 21.7499 12 21.75C11.2708 21.7499 10.5713 21.4599 10.0557 20.9443C9.54001 20.4286 9.25002 19.7293 9.25 19C9.25 18.9632 9.25243 18.926 9.25781 18.8896C9.32093 18.4629 9.28285 18.0274 9.14648 17.6182C9.11655 17.5284 9.08188 17.4403 9.04297 17.3545C9.02753 17.3259 9.01266 17.2972 9.00098 17.2666C8.87102 17.0053 8.70024 16.7655 8.49414 16.5566C7.55725 15.8358 6.86452 14.8433 6.51172 13.7139C6.15204 12.5621 6.16338 11.3264 6.54492 10.1816C6.92654 9.03685 7.65878 8.04058 8.6377 7.33496C9.61662 6.62946 10.7933 6.25005 12 6.25ZM10.7217 17.75C10.7952 18.1715 10.8058 18.6027 10.751 19.0293C10.7585 19.3501 10.8888 19.6563 11.1162 19.8838C11.3506 20.1181 11.6686 20.2499 12 20.25C12.3313 20.2499 12.6494 20.118 12.8838 19.8838C13.1111 19.6563 13.2405 19.3501 13.248 19.0293C13.1932 18.6027 13.2053 18.1716 13.2793 17.75H10.7217ZM12 7.75C11.1083 7.75005 10.2391 8.03053 9.51562 8.55176C8.79202 9.0733 8.25083 9.81006 7.96875 10.6562C7.68672 11.5024 7.67741 12.4162 7.94336 13.2676C8.19269 14.0655 8.67176 14.7709 9.31836 15.2969L9.4502 15.4004L9.52734 15.4668C9.76617 15.7032 9.97562 15.9662 10.1514 16.25H13.8486C14.0242 15.9662 14.2338 15.7032 14.4727 15.4668C14.4968 15.4429 14.5226 15.4208 14.5498 15.4004C15.2633 14.8653 15.7906 14.1188 16.0566 13.2676C16.3226 12.4163 16.3142 11.5024 16.0322 10.6562C15.7502 9.81007 15.2089 9.07331 14.4854 8.55176C13.7618 8.03028 12.8919 7.75005 12 7.75ZM4 11.25C4.4141 11.2501 4.75 11.5859 4.75 12C4.75 12.4141 4.4141 12.7499 4 12.75H3C2.58579 12.75 2.25 12.4142 2.25 12C2.25 11.5858 2.58579 11.25 3 11.25H4ZM21 11.25C21.4142 11.25 21.75 11.5858 21.75 12C21.75 12.4142 21.4142 12.75 21 12.75H20C19.5859 12.7499 19.25 12.4141 19.25 12C19.25 11.5859 19.5859 11.2501 20 11.25H21ZM5.07031 5.07031C5.34478 4.79584 5.77867 4.77763 6.07324 5.01758L6.13086 5.07031L6.83105 5.77051L6.88184 5.82617C7.1222 6.12075 7.10568 6.55643 6.83105 6.83105C6.55643 7.10568 6.12075 7.1222 5.82617 6.88184L5.77051 6.83105L5.07031 6.13086L5.01758 6.07324C4.77763 5.77867 4.79584 5.34478 5.07031 5.07031ZM17.8701 5.07031C18.163 4.77742 18.6378 4.77742 18.9307 5.07031C19.2231 5.36324 19.2234 5.83813 18.9307 6.13086L18.2305 6.83105C17.9377 7.12349 17.4628 7.12336 17.1699 6.83105C16.8771 6.53826 16.8773 6.06342 17.1699 5.77051L17.8701 5.07031ZM12 2.25C12.4142 2.25 12.75 2.58579 12.75 3V4C12.7499 4.4141 12.4141 4.75 12 4.75C11.5859 4.75 11.2501 4.4141 11.25 4V3C11.25 2.58579 11.5858 2.25 12 2.25Z" fill="#707070"/>
</g>
<defs>
<clipPath id="clip0_13502_32218">
<rect width="24" height="24" fill="white"/>
</clipPath>
</defs>
</svg>
