<svg width="32" height="32" viewBox="0 0 32 32" fill="none" xmlns="http://www.w3.org/2000/svg">
<g clip-path="url(#clip0_461_40608)">
<path d="M15.9993 2.66666C8.63555 2.66666 2.66602 8.63619 2.66602 16C2.66602 23.3638 8.63555 29.3333 15.9993 29.3333C23.3631 29.3333 29.3327 23.3638 29.3327 16C29.3327 12.4638 27.9279 9.07238 25.4274 6.5719C22.927 4.07141 19.5356 2.66666 15.9993 2.66666ZM15.9993 6.66666C18.2085 6.66666 19.9993 8.45752 19.9993 10.6667C19.9993 12.8758 18.2085 14.6667 15.9993 14.6667C13.7902 14.6667 11.9993 12.8758 11.9993 10.6667C11.9993 8.45752 13.7902 6.66666 15.9993 6.66666ZM23.4927 21.5467C21.7319 23.9178 18.9528 25.3157 15.9993 25.3157C13.0459 25.3157 10.2668 23.9178 8.50602 21.5467C8.2383 21.151 8.2027 20.6424 8.41268 20.2133L8.69268 19.6267C9.35252 18.228 10.7595 17.335 12.306 17.3333H19.6927C21.2175 17.3354 22.6084 18.2041 23.2793 19.5733L23.586 20.2C23.8012 20.6326 23.7655 21.1478 23.4927 21.5467Z" fill="#191919"/>
</g>
<defs>
<clipPath id="clip0_461_40608">
<rect width="32" height="32" fill="white"/>
</clipPath>
</defs>
</svg>
