<svg width="24" height="24" viewBox="0 0 24 24" fill="none" xmlns="http://www.w3.org/2000/svg">
<g clip-path="url(#clip0_13494_24125)">
<path d="M20.4919 5.00028H8.82291C8.33633 3.62273 6.92904 2.79641 5.49033 3.04349C4.05163 3.29056 3 4.53917 3 6.00028C3 7.46139 4.05163 8.71 5.49033 8.95708C6.92904 9.20415 8.33633 8.37783 8.82291 7.00028H20.4919C20.7677 7.00028 20.9914 6.77642 20.9914 6.50028V5.50028C20.9914 5.22414 20.7677 5.00028 20.4919 5.00028ZM6.00558 7.00028C5.45382 7.00028 5.00653 6.55257 5.00653 6.00028C5.00653 5.448 5.45382 5.00028 6.00558 5.00028C6.55734 5.00028 7.00463 5.448 7.00463 6.00028C7.00463 6.55257 6.55734 7.00028 6.00558 7.00028ZM20.4919 11.0003H14.8172C14.387 9.81383 13.2609 9.0238 11.9999 9.0238C10.7389 9.0238 9.61279 9.81383 9.18257 11.0003H3.50795C3.23206 11.0003 3.00842 11.2241 3.00842 11.5003V12.5003C3.00842 12.7764 3.23206 13.0003 3.50795 13.0003H9.18257C9.61279 14.1867 10.7389 14.9768 11.9999 14.9768C13.2609 14.9768 14.387 14.1867 14.8172 13.0003H20.4919C20.7677 13.0003 20.9914 12.7764 20.9914 12.5003V11.5003C20.9914 11.2241 20.7677 11.0003 20.4919 11.0003ZM11.9999 13.0003C11.4481 13.0003 11.0008 12.5526 11.0008 12.0003C11.0008 11.448 11.4481 11.0003 11.9999 11.0003C12.5517 11.0003 12.999 11.448 12.999 12.0003C12.999 12.5526 12.5517 13.0003 11.9999 13.0003ZM17.9942 15.0003C16.7272 15.0038 15.5992 15.8046 15.1769 17.0003H3.50795C3.23206 17.0003 3.00842 17.2241 3.00842 17.5003V18.5003C3.00842 18.7764 3.23206 19.0003 3.50795 19.0003H15.1769C15.6853 20.4397 17.1926 21.2673 18.6786 20.923C20.1646 20.5786 21.1552 19.1722 20.9799 17.6556C20.8047 16.139 19.5195 14.996 17.9942 15.0003ZM17.9942 19.0003C17.4425 19.0003 16.9952 18.5526 16.9952 18.0003C16.9952 17.448 17.4425 17.0003 17.9942 17.0003C18.546 17.0003 18.9933 17.448 18.9933 18.0003C18.9933 18.5526 18.546 19.0003 17.9942 19.0003Z" fill="#191919"/>
</g>
<defs>
<clipPath id="clip0_13494_24125">
<rect width="24" height="24" fill="white"/>
</clipPath>
</defs>
</svg>
